<svg version="1.2" xmlns="http://www.w3.org/2000/svg" viewBox="0 0 1884 1964" width="1884" height="1964">
	<style>
		.s0 { fill: #0b0b0b } 
		.s1 { fill: #141414 } 
		.s2 { fill: none;stroke: #616161;stroke-linecap: round;stroke-linejoin: round;stroke-width: 3 } 
		.s3 { fill: #263238 } 
		.s4 { fill: #212121 } 
	</style>
	<path id="Black" class="s0" d="m1784.58 1548.81l19.55 23.46-48.88 134.89-25.41 1.95zm-84.06 179.86h19.55l60.6-209.18-9.78-3.91zm-408.58 203.31c0 0 0.18 0.59 5.87 3.91 6.03 3.52 17.59 5.87 17.59 5.87l160.31-353.85 127.07-477c0 0-5.11-2.51-9.78-3.91-5.08-1.53-9.77-1.95-9.77-1.95zm-11.73-475.05l-19.55-5.87-54.74 29.33-13.68 52.78-3.91 66.47 3.91 21.5 9.77 15.64 23.46 11.73zm-1180.87 91.69l-19.53 23.46 48.83 134.87 25.39 1.95zm83.99 179.84h-19.53l-60.55-209.16 9.76-3.91zm408.22 203.29c0 0-0.17 0.59-5.86 3.91-6.02 3.52-17.58 5.87-17.58 5.87l-160.16-353.8-126.96-476.95c0 0 5.1-2.51 9.77-3.91 5.08-1.52 9.77-1.95 9.77-1.95zm11.72-474.99l19.53-5.87 54.69 29.32 13.67 52.78 3.91 66.46-3.91 21.5-9.77 15.64-23.43 11.73z"/>
	<path id="WireBip" class="s1" d="m1812.87 597.5c9.12-3.55 23.29 10.97 31.65 32.43 8.35 21.46 7.73 41.73-1.39 45.29-9.12 3.55-23.29-10.97-31.64-32.43-8.36-21.46-7.74-41.74 1.38-45.29zm-1741.8-0.07c-9.12-3.55-23.27 10.96-31.62 32.42-8.35 21.46-7.73 41.73 1.38 45.28 9.12 3.55 23.27-10.96 31.62-32.42 8.35-21.46 7.73-41.73-1.38-45.28z"/>
	<path id="Band" class="s1" d="m1862.77 807.89c0 0 5.89-2.46 9.78-5.87 3.93-3.44 5.86-5.86 5.86-5.86 0 0 1.68-5.53 1.12-8.55-4.67-25.19-29.17-147.85-79.31-243.64-54.58-104.24-106.49-192.87-218.96-295.19-112.46-102.33-231.9-157.17-283.46-177.9-51.56-20.73-156.12-70.38-357.25-70.38-201.12 0 0 0 0 0v21.51h46.41l410.54 129.02 246.32 201.36 97.75 134.89 101.65 267.83zm-1841.56-0.11c0 0-5.88-2.46-9.77-5.86-3.92-3.44-5.86-5.86-5.86-5.86 0 0-1.67-5.53-1.11-8.55 4.67-25.18 29.14-147.84 79.24-243.61 54.53-104.23 106.4-192.84 218.76-295.16 112.36-102.31 231.7-157.15 283.21-177.87 51.52-20.73 155.98-70.37 356.93-70.37 200.95 0 0 0 0 0v21.5h-46.37l-410.17 129.01-246.1 201.33-97.66 134.88-101.57 267.79z"/>
	<g id="Rods">
		<path id="LeftRod" fill-rule="evenodd" class="s2" d="m1647.73 1912.43c0 0 28.9-48.58 64.51-132.94 69.82-165.38 171.02-461.66 170.08-768.29-0.18-58.93-2.31-115.83-9.77-168.12-51.18-358.54-254.74-563.84-381.21-647.09-144.92-95.38-298.58-178.83-549.34-179.85"/>
		<path id="RightRod" fill-rule="evenodd" class="s2" d="m236.06 1912.19c0 0-28.87-48.57-64.45-132.92-69.76-165.36-170.87-461.6-169.93-768.19 0.18-58.93 2.31-115.82 9.76-168.11 51.14-358.5 254.52-563.76 380.88-647 144.78-95.37 298.3-178.81 548.84-179.83"/>
	</g>
	<path id="Nibs" class="s1" d="m1778.71 1517.53l17.6 7.82c0 0-4.45 13.56-5.87 17.59-7.94 22.63-29.48 88.61-41.05 121.21-21.61 60.84-25.42 72.33-25.42 72.33 0 0-6.06-2.51-9.77-3.91-4.09-1.53-5.87-1.95-5.87-1.95 0 0 24.89-70.86 43.01-130.98 13.4-44.45 27.37-82.11 27.37-82.11zm74.29 29.32c0 0 2.08 57.24-15.64 107.52-18.43 52.32-54.74 99.71-54.74 99.71 0 0-11.91-2.67-21.5-5.87-10.86-3.62-21.51-7.82-21.51-7.82 0 0 33.83-102.35 54.74-162.26 7.93-22.73 17.6-46.92 17.6-46.92 0 0 11.39 2.02 21.5 5.87 10.42 3.97 19.55 9.77 19.55 9.77zm-1747.8-29.51l-17.58 7.82c0 0 4.44 13.56 5.86 17.59 7.93 22.62 29.45 88.6 41.01 121.19 21.59 60.83 25.4 72.33 25.4 72.33 0 0 6.05-2.52 9.76-3.91 4.09-1.54 5.86-1.96 5.86-1.96 0 0-24.86-70.84-42.97-130.96-13.39-44.44-27.35-82.1-27.34-82.1zm-74.23 29.32c0 0-2.07 57.23 15.63 107.51 18.42 52.3 54.69 99.69 54.69 99.69 0 0 11.9-2.67 21.49-5.87 10.84-3.61 21.48-7.81 21.48-7.81 0 0-33.8-102.34-54.69-162.24-7.93-22.73-17.58-46.92-17.58-46.92 0 0-11.39 2.02-21.48 5.87-10.41 3.97-19.54 9.77-19.54 9.77z"/>
	<path id="Wire" class="s1" d="m1682.92 1150l13.68-31.28-9.77-5.86c0 0 20.59-65.7 5.86-125.12-14.72-59.41-52.78-95.79-52.78-95.79 0 0-64.53-39.77-33.23-93.84 31.3-54.06 87.24-19 97.74-11.73 10.51 7.28 80 27.14 117.3-29.32 37.3-56.46-11.53-43.14-11.53-43.14-0.08 1.61-22.75 47.23-62.76 47.05-40.01-0.18-37.48-13.52-62.56-23.46-25.07-9.94-54.73 0-54.73 0 0 0-65.45 15.83-66.47 87.97-1.02 72.15 58.38 70.31 82.11 138.8 23.79 68.69 22.77 73.84 15.64 105.57-6.99 31.08-5.87 31.28-5.87 31.28l-7.82-1.96-9.77 21.51zm-1482.02-0.14l-13.67-31.28 9.76-5.86c0 0-20.57-65.7-5.86-125.1 14.71-59.41 52.74-95.78 52.74-95.78 0 0 64.48-39.77 33.2-93.83-31.27-54.06-87.16-19-97.66-11.73-10.49 7.28-79.92 27.13-117.19-29.32-37.26-56.45 11.53-43.14 11.53-43.14 0.07 1.62 22.72 47.23 62.69 47.05 39.98-0.18 37.45-13.52 62.51-23.45 25.05-9.94 54.69 0 54.69 0 0 0 65.39 15.82 66.4 87.96 1.02 72.13-58.32 70.3-82.03 138.78-23.77 68.67-22.75 73.83-15.63 105.55 6.98 31.08 5.86 31.28 5.86 31.28l7.82-1.96 9.76 21.5z"/>
	<path id="Cushion" class="s3" d="m951.77 18.1c0 0 203.28-11.98 432.04 113.38 228.77 125.36 311.33 258.23 371.44 359.71 28.88 48.74 63.17 133.56 84.06 203.31 23.07 77 33.24 150.53 33.24 150.53 0 0-35.47-12.25-46.92-62.56-11.45-50.3-52.39-161-115.34-248.27-64.83-89.88-274.95-403.19-758.04-416.4m-20.02-99.7h21.5v99.7h-21.5zm-0.83 0c0 0-203.1-11.98-431.66 113.37-228.56 125.34-311.05 258.19-371.11 359.66-28.84 48.74-63.11 133.54-83.98 203.29-23.04 76.98-33.21 150.51-33.21 150.51 0 0 35.44-12.25 46.88-62.55 11.44-50.3 52.35-160.99 115.24-248.25 64.77-89.87 274.71-403.13 757.36-416.35m20.01-99.68h-21.48v99.68h21.48z"/>
	<path id="Housing" class="s4" d="m1600.81 1105.04c0 0-61.39 189.08-129.02 385.12-76.49 221.71-160.31 453.55-160.31 453.55 0 0 7.26 2.81 17.6 5.86 7.2 2.13 19.55 5.86 19.55 5.86l1.95-1.95c0 0 14.25 1.79 39.1 3.91 20.71 1.76 52.78 3.91 52.78 3.91v1.95c0 0 10.78 0.57 17.6 0 4.32-0.36 5.86-1.95 5.86-1.95 0 0 18.08-2.58 52.79-33.23 7.67-6.78 22.89-20.03 35.18-33.24 17.33-18.62 29.33-39.1 29.33-39.1 0 0 7.14-15.61 15.64-39.1 8.11-22.42 17.59-52.78 17.59-52.78 0 0 18.46-12.77 41.06-21.5 6.04-2.34 44.96-11.73 44.96-11.73 0 0 17.52-56.58 37.14-111.43 18.46-51.59 35.19-105.57 35.19-105.57 0 0-10.5-11.41-17.59-21.5-15.05-21.41-29.33-52.79-29.33-52.79 0 0 6.91-17.85 13.69-39.1 7.81-24.46 17.59-52.78 17.59-52.78 0 0 4.73-32.94 0-60.6-3.18-18.61-6.91-39.95-11.73-56.7-7.36-25.62-15.64-43-15.64-43l-39.1-33.24v-3.91c0 0-11.97-6.01-21.5-11.73-17.32-10.39-37.14-23.46-37.14-23.46l-7.82 3.91zm-1317.88-0.13c0 0 61.34 189.05 128.91 385.07 76.42 221.68 160.16 453.49 160.16 453.49 0 0-7.25 2.81-17.57 5.86-7.2 2.13-19.54 5.87-19.54 5.87l-1.95-1.96c0 0-14.23 1.8-39.06 3.91-20.69 1.76-52.74 3.91-52.74 3.91v1.95c0 0-10.76 0.57-17.58 0-4.31-0.36-5.86-1.95-5.86-1.95 0 0-18.06-2.57-52.73-33.23-7.67-6.77-22.88-20.02-35.16-33.23-17.32-18.62-29.3-39.09-29.3-39.09 0 0-7.14-15.61-15.63-39.1-8.1-22.42-17.57-52.77-17.57-52.77 0 0-18.45-12.78-41.02-21.51-6.04-2.33-44.92-11.72-44.92-11.72 0 0-17.51-56.57-37.12-111.42-18.44-51.58-35.15-105.55-35.15-105.55 0 0 10.49-11.41 17.58-21.51 15.03-21.4 29.29-52.77 29.29-52.77 0 0-6.89-17.85-13.67-39.1-7.8-24.46-17.58-52.77-17.58-52.77 0 0-4.72-32.93 0-60.6 3.18-18.61 6.91-39.94 11.72-56.68 7.36-25.63 15.63-43.01 15.63-43.01l39.06-33.23v-3.91c0 0 11.96-6.01 21.49-11.72 17.3-10.4 37.11-23.46 37.11-23.46l7.81 3.91z"/>
	<path id="Buds" class="s4" d="m1188.32 1509.71c0 0 31.13-14.64 60.6-25.41 18.96-6.93 41.06-11.73 41.06-11.73l-52.79 138.8c0 0-25.6-11.87-33.23-17.6-18.33-13.75-29.32-29.32-29.32-29.32m-479.58-54.93c0 0-31.1-14.64-60.55-25.41-18.94-6.92-41.01-11.73-41.01-11.73l52.73 138.79c0 0 25.58-11.87 33.21-17.6 18.31-13.74 29.29-29.32 29.29-29.32m487.41 56.89c0 0 3.59 8.33 9.78 15.64 4.15 4.91 13.68 7.82 13.68 7.82 0 0-12.07-3.53-21.5-7.82-12.28-5.59-23.37-13.04-31.28-21.5-40.46-43.28-37.74-77.93-15.64-121.21 2.4-4.71 7.46-11.76 13.68-17.59 8.19-7.69 17.6-13.69 17.6-13.69 0 0 19.9-11.09 44.96-15.64 4.49-0.81 11.25-1.97 17.59-1.95 6.69 0.02 12.92 1.26 15.64 1.95 2.01 0.52 6.44 1.77 9.78 3.91 6.25 4.02 11.73 9.78 11.73 9.78 0 0-13-7.2-21.51-5.87-8.13 1.28-43.99 19.58-54.73 62.56-4.68 18.7-9.37 39.41-11.73 56.69-3.06 22.38-2.6 15.91-1.96 27.37 0.54 9.63 3.91 19.55 3.91 19.55zm-508.89-0.2c0 0-3.59 8.33-9.77 15.64-4.15 4.91-13.67 7.82-13.67 7.82 0 0 12.06-3.53 21.49-7.82 12.26-5.59 23.34-13.04 31.25-21.5 40.42-43.28 37.7-77.92 15.62-121.2-2.4-4.7-7.45-11.75-13.67-17.59-8.18-7.68-17.58-13.68-17.58-13.68 0 0-19.88-11.09-44.92-15.64-4.49-0.81-11.24-1.97-17.58-1.95-6.68 0.02-12.91 1.26-15.63 1.95-2 0.52-6.43 1.77-9.76 3.91-6.25 4.02-11.72 9.77-11.72 9.77 0 0 12.99-7.19 21.48-5.86 8.13 1.27 43.96 19.58 54.69 62.55 4.67 18.7 9.36 39.41 11.72 56.69 3.06 22.38 2.6 15.91 1.96 27.36-0.55 9.63-3.91 19.55-3.91 19.55z"/>
	<path id="Cups" class="s3" d="m1587.13 1101.13c0 0-15.21 35.16-86.02 238.5-73.79 211.91-207.22 600.17-207.22 600.17 0 0-22.05-7.83-43.01-17.6-22.69-10.58-44.84-23.52-56.69-33.23-13.05-10.7-24.95-21.87-31.28-31.28-13.86-20.59-11.73-35.19-11.73-35.19 0 0 126.75-378.7 173.99-514.15 72.35-207.46 74.28-203.31 74.28-203.31 0 0 7.03-13.06 21.51-19.55 13.85-6.21 37.14-7.82 37.14-7.82 0 0 30.86-1.26 66.47 5.86 11.71 2.35 62.56 17.6 62.56 17.6zm-1290.52-0.14c0 0 15.19 35.16 85.94 238.47 73.73 211.88 207.04 600.09 207.04 600.09 0 0 22.03-7.82 42.97-17.59 22.67-10.58 44.79-23.51 56.64-33.23 13.04-10.69 24.92-21.86 31.25-31.27 13.85-20.58 11.72-35.19 11.72-35.19 0 0-126.63-378.65-173.83-514.08-72.3-207.44-74.22-203.29-74.22-203.29 0 0-7.02-13.06-21.49-19.55-13.84-6.2-37.11-7.81-37.11-7.81 0 0-30.83-1.26-66.41 5.86-11.7 2.34-62.5 17.59-62.5 17.59z"/>
</svg>